<svg width="1024" height="1024" viewBox="0 0 1024 1024" fill="none" xmlns="http://www.w3.org/2000/svg">
<g clip-path="url(#clip0_1_31)">
<rect width="1024" height="1024" rx="512" fill="white"/>
<path d="M937.702 796.467C780.595 1031.58 462.641 1094.81 227.532 937.702C-7.57631 780.595 -70.8092 462.641 86.2979 227.532C243.405 -7.57637 561.359 -70.8092 796.467 86.2978C1031.58 243.405 1094.81 561.359 937.702 796.467Z" fill="black"/>
<path d="M-236.191 675.936L354.968 -208.726L463.368 -136.29L-127.791 748.372L-236.191 675.936Z" fill="black"/>
<path d="M-127.791 748.372L463.368 -136.29L571.768 -63.8532L-19.3907 820.809L-127.791 748.372Z" fill="#111111"/>
<path d="M-19.3907 820.809L571.768 -63.8532L680.168 8.58321L89.0095 893.245L-19.3907 820.809Z" fill="#222222"/>
<path d="M89.0095 893.245L680.168 8.58321L788.569 81.0196L197.41 965.682L89.0095 893.245Z" fill="#333333"/>
<path d="M197.41 965.682L788.569 81.0196L896.969 153.456L305.81 1038.12L197.41 965.682Z" fill="white"/>
<path d="M305.81 1038.12L896.969 153.456L1005.37 225.892L414.21 1110.55L305.81 1038.12Z" fill="#444444"/>
<path d="M414.21 1110.55L1005.37 225.892L1113.77 298.329L522.61 1182.99L414.21 1110.55Z" fill="#FBFBFB"/>
<path d="M522.61 1182.99L1113.77 298.329L1222.17 370.765L631.01 1255.43L522.61 1182.99Z" fill="#333333"/>
</g>
<defs>
<clipPath id="clip0_1_31">
<rect width="1024" height="1024" rx="512" fill="white"/>
</clipPath>
</defs>
</svg>
